<svg width="188" height="29" viewBox="0 0 188 29" fill="none" xmlns="http://www.w3.org/2000/svg">
<path d="M9.12 8.04C12.0533 8.04 14.1733 8.57333 15.48 9.64C16.8133 10.7067 17.48 12.2933 17.48 14.4C17.5067 16.1333 17.1467 17.4933 16.4 18.48C15.6533 19.44 14.4667 19.92 12.84 19.92H1.48V17.28H11.96C12.84 17.28 13.4133 16.9867 13.68 16.4C13.9467 15.7867 14.08 15.12 14.08 14.4C14.0533 13.1467 13.68 12.2533 12.96 11.72C12.24 11.1867 11.0133 10.92 9.28 10.92C7.86667 10.92 6.74667 11.1333 5.92 11.56C5.12 11.96 4.54667 12.68 4.2 13.72C3.88 14.7333 3.72 16.16 3.72 18C3.72 20.08 3.92 21.6667 4.32 22.76C4.74667 23.8533 5.41333 24.6 6.32 25C7.22667 25.4 8.42667 25.6 9.92 25.6C10.96 25.6 12.0933 25.56 13.32 25.48C14.5733 25.3733 15.6933 25.2533 16.68 25.12L17.04 27.4C16.4267 27.64 15.6667 27.84 14.76 28C13.88 28.16 12.96 28.28 12 28.36C11.0667 28.44 10.2267 28.48 9.48 28.48C7.24 28.48 5.44 28.1467 4.08 27.48C2.72 26.7867 1.72 25.6933 1.08 24.2C0.466667 22.68 0.16 20.68 0.16 18.2C0.16 15.64 0.466667 13.6267 1.08 12.16C1.72 10.6667 2.69333 9.61333 4 9C5.33333 8.36 7.04 8.04 9.12 8.04ZM25.2444 8.52L25.6844 12.24L26.0044 12.84V28H22.6044V8.52H25.2444ZM34.8044 8.04L34.4044 11.24H33.2844C32.1377 11.24 30.991 11.48 29.8444 11.96C28.6977 12.4133 27.2977 13.0667 25.6444 13.92L25.3644 11.8C26.8044 10.6267 28.2444 9.70667 29.6844 9.04C31.151 8.37333 32.5644 8.04 33.9244 8.04H34.8044ZM41.2991 8.52L41.7391 12.24L42.0591 12.84V28H38.6591V8.52H41.2991ZM50.8591 8.04L50.4591 11.24H49.3391C48.1924 11.24 47.0457 11.48 45.8991 11.96C44.7524 12.4133 43.3524 13.0667 41.6991 13.92L41.4191 11.8C42.8591 10.6267 44.2991 9.70667 45.7391 9.04C47.2057 8.37333 48.6191 8.04 49.9791 8.04H50.8591ZM62.5259 8.04C63.1126 8.04 63.7659 8.06667 64.4859 8.12C65.2059 8.17333 65.9393 8.26667 66.6859 8.4C67.4593 8.53333 68.1659 8.72 68.8059 8.96L68.3659 11.16C67.4859 11.08 66.5526 11.0267 65.5659 11C64.6059 10.9467 63.7793 10.92 63.0859 10.92C61.5393 10.92 60.3126 11.1333 59.4059 11.56C58.4993 11.9867 57.8459 12.7333 57.4459 13.8C57.0459 14.8667 56.8459 16.3467 56.8459 18.24C56.8459 20.1333 57.0459 21.6267 57.4459 22.72C57.8459 23.7867 58.4993 24.5333 59.4059 24.96C60.3126 25.3867 61.5393 25.6 63.0859 25.6C63.4859 25.6 64.0059 25.5867 64.6459 25.56C65.2859 25.5333 65.9659 25.4933 66.6859 25.44C67.4326 25.3867 68.1393 25.3067 68.8059 25.2L69.1659 27.48C68.1793 27.8267 67.0993 28.08 65.9259 28.24C64.7793 28.4 63.6326 28.48 62.4859 28.48C60.2459 28.48 58.4459 28.1467 57.0859 27.48C55.7259 26.8133 54.7393 25.7333 54.1259 24.24C53.5393 22.7467 53.2459 20.7467 53.2459 18.24C53.2459 15.7333 53.5526 13.7333 54.1659 12.24C54.7793 10.7467 55.7659 9.68 57.1259 9.04C58.4859 8.37333 60.2859 8.04 62.5259 8.04ZM82.9763 8.04C84.4163 8.04 85.6296 8.24 86.6163 8.64C87.6296 9.01333 88.3896 9.65333 88.8963 10.56C89.4029 11.4667 89.6563 12.7067 89.6563 14.28V28H86.9763L86.4563 23.76L86.2163 23.32V14.28C86.2163 13.08 85.9363 12.2267 85.3763 11.72C84.8429 11.1867 83.8029 10.92 82.2563 10.92C81.2429 10.92 79.9629 10.9733 78.4163 11.08C76.8963 11.1867 75.3896 11.3067 73.8963 11.44L73.5763 8.92C74.4829 8.76 75.4696 8.61333 76.5362 8.48C77.6296 8.34667 78.7363 8.24 79.8563 8.16C80.9763 8.08 82.0163 8.04 82.9763 8.04ZM88.0563 16L88.0163 18.56L78.6963 18.6C77.7629 18.6267 77.1096 18.88 76.7363 19.36C76.3629 19.8133 76.1763 20.4533 76.1763 21.28V22.52C76.1763 23.5333 76.4163 24.28 76.8963 24.76C77.3763 25.2133 78.1496 25.44 79.2163 25.44C79.9629 25.44 80.8029 25.3067 81.7363 25.04C82.6963 24.7467 83.6563 24.3067 84.6163 23.72C85.5763 23.1333 86.4563 22.3867 87.2563 21.48V24C86.9629 24.3733 86.5363 24.8133 85.9763 25.32C85.4429 25.8 84.7896 26.28 84.0163 26.76C83.2696 27.2133 82.4296 27.6 81.4963 27.92C80.5896 28.2133 79.6029 28.36 78.5363 28.36C77.3896 28.36 76.3763 28.16 75.4963 27.76C74.6163 27.3333 73.9229 26.72 73.4163 25.92C72.9363 25.0933 72.6963 24.0933 72.6963 22.92V20.8C72.6963 19.28 73.1629 18.1067 74.0963 17.28C75.0563 16.4267 76.3896 16 78.0963 16H88.0563ZM100.609 2.76V22.64C100.609 23.5733 100.809 24.24 101.209 24.64C101.609 25.04 102.289 25.24 103.249 25.24H106.209L106.609 27.84C106.183 27.9467 105.689 28.04 105.129 28.12C104.569 28.2 104.023 28.2533 103.489 28.28C102.956 28.3333 102.529 28.36 102.209 28.36C100.583 28.36 99.3427 27.9067 98.4894 27C97.636 26.0933 97.2094 24.7867 97.2094 23.08V2.76H100.609ZM106.809 8.52V11.2H93.6894V8.72L97.5294 8.52H106.809ZM119.284 8.04C119.87 8.04 120.524 8.06667 121.244 8.12C121.964 8.17333 122.697 8.26667 123.444 8.4C124.217 8.53333 124.924 8.72 125.564 8.96L125.124 11.16C124.244 11.08 123.31 11.0267 122.324 11C121.364 10.9467 120.537 10.92 119.844 10.92C118.297 10.92 117.07 11.1333 116.164 11.56C115.257 11.9867 114.604 12.7333 114.204 13.8C113.804 14.8667 113.604 16.3467 113.604 18.24C113.604 20.1333 113.804 21.6267 114.204 22.72C114.604 23.7867 115.257 24.5333 116.164 24.96C117.07 25.3867 118.297 25.6 119.844 25.6C120.244 25.6 120.764 25.5867 121.404 25.56C122.044 25.5333 122.724 25.4933 123.444 25.44C124.19 25.3867 124.897 25.3067 125.564 25.2L125.924 27.48C124.937 27.8267 123.857 28.08 122.684 28.24C121.537 28.4 120.39 28.48 119.244 28.48C117.004 28.48 115.204 28.1467 113.844 27.48C112.484 26.8133 111.497 25.7333 110.884 24.24C110.297 22.7467 110.004 20.7467 110.004 18.24C110.004 15.7333 110.31 13.7333 110.924 12.24C111.537 10.7467 112.524 9.68 113.884 9.04C115.244 8.37333 117.044 8.04 119.284 8.04ZM142.374 8.04C145.894 8.04 147.654 9.82667 147.654 13.4V28H144.214V14.36C144.214 13.0533 144.001 12.16 143.574 11.68C143.174 11.1733 142.467 10.92 141.454 10.92C140.254 10.92 139.054 11.2 137.854 11.76C136.654 12.32 135.227 13.1333 133.574 14.2L133.414 11.76C134.934 10.6133 136.441 9.70667 137.934 9.04C139.427 8.37333 140.907 8.04 142.374 8.04ZM133.934 -1.90735e-06L133.974 7.72C133.974 8.6 133.934 9.42667 133.854 10.2C133.801 10.9733 133.707 11.6533 133.574 12.24L133.934 12.84V28H130.534V-1.90735e-06H133.934ZM161.776 8.04C164.71 8.04 166.83 8.57333 168.136 9.64C169.47 10.7067 170.136 12.2933 170.136 14.4C170.163 16.1333 169.803 17.4933 169.056 18.48C168.31 19.44 167.123 19.92 165.496 19.92H154.136V17.28H164.616C165.496 17.28 166.07 16.9867 166.336 16.4C166.603 15.7867 166.736 15.12 166.736 14.4C166.71 13.1467 166.336 12.2533 165.616 11.72C164.896 11.1867 163.67 10.92 161.936 10.92C160.523 10.92 159.403 11.1333 158.576 11.56C157.776 11.96 157.203 12.68 156.856 13.72C156.536 14.7333 156.376 16.16 156.376 18C156.376 20.08 156.576 21.6667 156.976 22.76C157.403 23.8533 158.07 24.6 158.976 25C159.883 25.4 161.083 25.6 162.576 25.6C163.616 25.6 164.75 25.56 165.976 25.48C167.23 25.3733 168.35 25.2533 169.336 25.12L169.696 27.4C169.083 27.64 168.323 27.84 167.416 28C166.536 28.16 165.616 28.28 164.656 28.36C163.723 28.44 162.883 28.48 162.136 28.48C159.896 28.48 158.096 28.1467 156.736 27.48C155.376 26.7867 154.376 25.6933 153.736 24.2C153.123 22.68 152.816 20.68 152.816 18.2C152.816 15.64 153.123 13.6267 153.736 12.16C154.376 10.6667 155.35 9.61333 156.656 9C157.99 8.36 159.696 8.04 161.776 8.04ZM177.901 8.52L178.341 12.24L178.661 12.84V28H175.261V8.52H177.901ZM187.461 8.04L187.061 11.24H185.941C184.794 11.24 183.647 11.48 182.501 11.96C181.354 12.4133 179.954 13.0667 178.301 13.92L178.021 11.8C179.461 10.6267 180.901 9.70667 182.341 9.04C183.807 8.37333 185.221 8.04 186.581 8.04H187.461Z" fill="#2196F3"/>
</svg>
